<svg id="Layer_1" data-name="Layer 1" xmlns="http://www.w3.org/2000/svg" viewBox="0 0 414.75 280.02"><defs><style>.cls-1{fill:#fff;}.cls-2{fill:#2f79bd;}</style></defs><title>american-express-logo</title><rect class="cls-1" x="35.6" width="285.63" height="279.42"/><path class="cls-2" d="M311.14,207l-1.07-.06H287.71v-1.54a20.81,20.81,0,0,1-7.85,1.58l-1.07-.06H265.54V207h-32V207H211.72v-6.57s0-4.67,0-5.55h-1.44V207h-22V193.9a31.54,31.54,0,0,1-11.7,1.84h-2.12V207h-26L142,199.81,135.43,207H93V158.83h41.75l7.31,8,7.33-7.92h2.87l6.8-.06h21.29a19.92,19.92,0,0,1,8,1.2v-1.09h27.85a19.6,19.6,0,0,1,8.59,1.35v-1.35h40.81v1.38a20,20,0,0,1,8-1.42h23.22v1.48a19.89,19.89,0,0,1,8.06-1.47h16.71V.29H35.85v122.6l9.77-23.19H66.83l2.54,6.06V99.69H94.21L99.7,111.9l5.46-12.21H181.9a19.6,19.6,0,0,1,8.6,1.36V99.69h22.07v2.9a22,22,0,0,1,10.64-3.2l12.3.33v0h21.15l2.36,5.64V99.69h22.82l3.62,6v-6h22.07v48.09H285l-3.79-6.29v6.29H252.93l-3.14-7.33h-7.5l-3.07,7.33H220.49l-.47-.06a20,20,0,0,1-7.46-2.94v3.12h-15.5v-.12H177.48v-6.57s0-4.67,0-5.55h-1.45v12.12h-68.2V147l-.34.74H91.87l-.42-.9v.9H63l-3.07-7.33H52.43l-3.13,7.33H35.85V279.71H321.48V204.13A20,20,0,0,1,311.14,207Z" transform="translate(-0.25 -0.29)"/><path class="cls-2" d="M184.17,141.21v-6.8a5.73,5.73,0,0,0-5.91-5.32h-8.64v12.12h-8.87V106.26h21.52s11.23-1.36,11.23,10.23a8.91,8.91,0,0,1-5,8.16s4.31,2,4.31,7.93v8.63h-8.69m-14.55-20.34h9.17c2.66,0,4.85-1.48,4.85-3.31s-2.19-3.31-4.85-3.31h-9.17v6.63h0" transform="translate(-0.25 -0.29)"/><path class="cls-2" d="M288.84,141.21l-14.08-23.36v23.36H257.39l-3.14-7.33H238L235,141.21h-13.9s-11.94-1.71-11.94-16.5c0-19.4,13.55-18.63,14-18.75l10.94.3v7.86l-9,.12s-5.86,0-6.57,7.63a23.92,23.92,0,0,0-.11,2.43c0,11.81,10.25,8.15,10.59,8l11-26.08h12.42l13.3,31.7v-31.7h12.54l13.9,23v-23h8.93v34.94H288.84m-47-16.26h8.63l-4.26-10.41-4.38,10.41h0" transform="translate(-0.25 -0.29)"/><path class="cls-2" d="M114.57,141.21V117.09l-11.12,24.12H96.18L85,117.2v24H67.49l-3.07-7.33H48.22l-3.13,7.33h-9.7l14.72-34.94H62.59l13.48,32.11V106.26h14L99.84,128l9.7-21.7h14v34.94h-9M52,124.95h8.63l-4.32-10.41L52,124.95h0" transform="translate(-0.25 -0.29)"/><polyline class="cls-2" points="128.21 140.92 128.21 105.98 155.88 105.98 155.88 114.14 137.14 114.14 137.14 119.52 155.41 119.52 155.41 127.44 137.14 127.44 137.14 133.36 155.88 133.36 155.88 140.92 128.21 140.92"/><polyline class="cls-2" points="196.93 141.04 196.93 105.98 205.85 105.98 205.85 141.04 196.93 141.04"/><path class="cls-2" d="M218.41,200.46v-6.8a5.73,5.73,0,0,0-5.92-5.32h-8.63v12.12H195V165.52h21.53s11.23-1.36,11.23,10.23a8.91,8.91,0,0,1-5,8.16s4.26,2,4.26,7.92v8.64h-8.63m-14.55-20.34H213c2.66,0,4.85-1.48,4.85-3.31s-2.19-3.31-4.85-3.31h-9.17v6.62h0" transform="translate(-0.25 -0.29)"/><path class="cls-2" d="M159.27,200.4h-7.75l-9.4-10.35-9.46,10.35h-33v-35H132l10.17,11.12,10.23-11.06h6.8v-.06h21.53s11.23-1.25,11.23,10.28c0,10.29-3.73,13.49-15.2,13.49H168V200.4h-8.75m-11.12-17.2,11,12.18v-24.3l-11,12.12h0m-39.56,9.64h18.69L136,183.2l-8.75-9.59H108.6V179h18.22v7.93H108.6v5.92h0M168,180.06h9.17c2.66,0,4.85-1.48,4.85-3.31s-2.19-3.31-4.85-3.31H168v6.62h0" transform="translate(-0.25 -0.29)"/><path class="cls-2" d="M278.91,200.35H263.12v-8H277s5,.59,5-2.77c0-3.14-7.51-2.9-7.51-2.9s-12.24,1.06-12.24-10.41,11.06-10.76,11.06-10.76h17v8.16H276.55s-4.74-1-4.74,2.49c0,2.89,6.44,2.48,6.44,2.48s13.55-1,13.55,9.52c0,11.29-8.73,12.29-11.82,12.29a10.71,10.71,0,0,1-1.07,0" transform="translate(-0.25 -0.29)"/><polyline class="cls-2" points="231.17 200.12 231.17 165.23 258.84 165.23 258.84 173.33 240.1 173.33 240.1 178.71 258.37 178.71 258.37 186.64 240.1 186.64 240.1 192.56 258.84 192.56 258.84 200.12 231.17 200.12"/><path class="cls-2" d="M310.19,200.35H294.4v-8h13.78s5,.59,5-2.77c0-3.14-7.51-2.9-7.51-2.9s-12.25,1.06-12.25-10.41,11.06-10.76,11.06-10.76h17v8.16H307.82s-4.73-1-4.73,2.49c0,2.89,6.45,2.48,6.45,2.48s13.54-1,13.54,9.52c0,11.29-8.73,12.29-11.82,12.29a10.71,10.71,0,0,1-1.07,0" transform="translate(-0.25 -0.29)"/><path class="cls-2" d="M.25,267.17A13.16,13.16,0,1,1,13.44,280.3,13.11,13.11,0,0,1,.25,267.17m2,0a11.07,11.07,0,0,0,11.24,11.18,11.18,11.18,0,0,0,0-22.36A11,11,0,0,0,2.21,267.17m14.49,6a15.2,15.2,0,0,1-.35-3.25c0-.89-.12-1.83-1.78-1.83H11v5.09H8.83V260.9h5.74c2,0,4.14.65,4.14,3.43a3.11,3.11,0,0,1-1.36,2.78c.59.3,1.06.83,1.12,2.19l.06,2.13c.06.64.12.77.59,1.06v.71H16.7m-5.74-7h3.43c1.13,0,2.13-.29,2.13-1.77s-1.06-1.66-1.83-1.66H11v3.43" transform="translate(-0.25 -0.29)"/><text x="-0.25" y="-0.29"></text></svg>