<svg id="Calque_1" data-name="Calque 1" xmlns="http://www.w3.org/2000/svg" viewBox="0 0 227.77 171.08"><defs><style>.cls-1{fill:none;stroke:#41ad49;}.cls-2{fill:#231f20;}.cls-3{fill:#034ea2;}.cls-4{fill:#fff;}</style></defs><title>diners-logo</title><rect class="cls-1" x="0.5" y="0.5" width="226.77" height="170.08"/><path class="cls-2" d="M97.64,13.59c.1-.36.2-.74,1.65-.74,4.5,0,5.37,3.13,5.37,5.7,0,1.55-.84,9.39-8.85,9.39-1.2,0-1.81-.15-1.81-1a15.73,15.73,0,0,1,.56-2.37ZM93,12.5c1.3.1,2,.23,2,1.09a7.36,7.36,0,0,1-.28,1.58L91.53,26.41c-.43,1.58-.81,1.65-2.06,1.88v.41h6.44c7.48,0,11.58-4.71,11.58-9.84,0-2.67-1.58-6.77-7.43-6.77H93Z" transform="translate(1 0.5)"/><path class="cls-2" d="M112.75,26.08c-1,1.5-2.11,2.9-3.54,2.9-1.2,0-1.2-1.12-1.2-1.58,0-1.2,2-7.5,2-8.22,0-.53-.2-.66-1.6-.66v-.41c1-.05,3.08-.46,4.07-.64l.08.05-2.24,8.19a11.47,11.47,0,0,0-.41,1.68.41.41,0,0,0,.41.38c.31,0,1-.51,2.09-2Zm-.51-11.32A1.2,1.2,0,0,1,111,13.44a1.25,1.25,0,0,1,1.2-1.37,1.38,1.38,0,0,1,1.27,1.4A1.3,1.3,0,0,1,112.24,14.76Z" transform="translate(1 0.5)"/><path class="cls-2" d="M124.63,26.06c-1.27,1.7-2.16,2.87-3.54,2.87-1.17,0-1.22-.76-1.22-1.5s1.88-6.82,1.88-7.84c0-.46-.15-.81-.64-.81-1.22,0-2.82,2.19-3.74,3.61-1.17,1.76-1.5,2.85-2.54,6.31h-1.91c.79-2.87,2.49-8.83,2.49-9.36,0-.38-.25-.66-1.63-.66v-.41c1.37-.25,2.75-.51,4.12-.79l.08.05-1.63,5.32.05.05c1.2-1.88,3.54-5.42,5.65-5.42a1.54,1.54,0,0,1,1.75,1.68c0,1.09-2,7.38-2,8.14a.42.42,0,0,0,.41.43c.51,0,1.14-.81,2.09-2Z" transform="translate(1 0.5)"/><path class="cls-2" d="M127.88,22.29c.94-2.26,2.67-4.22,4-4.22.64,0,.89.48.89,1,0,.2-.13,3.26-5.37,4.33Zm5.24,3.64c-1.27,1-2.34,1.91-3.71,1.91A2.22,2.22,0,0,1,127,25.52a6.82,6.82,0,0,1,.25-1.55l.71-.1c4.12-.58,6.51-2.65,6.51-4.66,0-1.12-.79-1.73-2.09-1.73-3.59,0-7.61,4.27-7.61,7.91A3.3,3.3,0,0,0,128.29,29c2.54,0,4.86-2.34,5.14-2.75Z" transform="translate(1 0.5)"/><path class="cls-2" d="M134.68,28.7l2.06-7.43a12.17,12.17,0,0,0,.41-2c0-.36-.13-.76-.92-.76a4.74,4.74,0,0,0-.84.13v-.43c1.3-.18,2.8-.51,3.94-.69l.08.05-1.25,5.06.05.05.2-.51c.84-1.68,2.77-4.66,4.38-4.66A1.18,1.18,0,0,1,144,18.73c0,1.32-.92,1.32-1.2,1.32-1.09,0-.71-.92-1.32-.92-.79,0-2.31,2.82-2.52,3.21a31.88,31.88,0,0,0-2.37,6.36Z" transform="translate(1 0.5)"/><path class="cls-2" d="M142.71,25c.18,1.12.58,3.46,2.65,3.46a1.86,1.86,0,0,0,1.83-2.06c0-1.68-3-4.12-3-6.08a2.74,2.74,0,0,1,3.05-2.82c1.14,0,1.65.43,2.42.43a.76.76,0,0,0,.71-.46h.36L150.19,21h-.41c-.13-1.45-.74-2.93-2.39-2.93A1.29,1.29,0,0,0,146,19.54c0,1.6,3.1,3.87,3.1,6,0,2.77-2.37,3.41-3.79,3.41-.76,0-1.78-.48-2.52-.48-.36,0-.46.25-.61.53h-.41l.51-4Z" transform="translate(1 0.5)"/><path class="cls-2" d="M171.74,16.8c-.05-.71-.28-4.12-3.92-4.12-5.09,0-7.68,6.16-7.68,9.9,0,3.33,1.4,5.44,4.43,5.44,2.87,0,4.66-1.81,5.88-3l.43.36c-.94,1.12-3.21,3.79-6.92,3.79-3,0-6.66-1.78-6.66-6.87,0-4.91,4.5-10.53,10.33-10.53a26.88,26.88,0,0,1,4,.61c.74,0,.89-.31,1-.56h.53l-.94,5.06Z" transform="translate(1 0.5)"/><path class="cls-2" d="M176.42,25.8c-1.3,2-2.29,3.18-3.87,3.18-1.12,0-1.22-.87-1.22-1.58,0-.53,3.69-13.81,3.69-14.35s-1.07-.66-1.73-.64V12a35.89,35.89,0,0,0,4-.69l.13.13-3.84,14.73a8.29,8.29,0,0,0-.25,1.2c0,.15,0,.51.38.51.64,0,1.17-.71,2.42-2.32Z" transform="translate(1 0.5)"/><path class="cls-2" d="M188.17,26c-1.6,2.31-2.26,3-3.54,3a1.14,1.14,0,0,1-1.2-1.32,35.94,35.94,0,0,1,1.09-4.68h-.08c-1.73,2.87-3.61,6.06-5.9,6.06-.92,0-1.4-.38-1.4-1.5s1.93-7.53,1.93-8.22-.48-.74-1.53-.74v-.36a33.5,33.5,0,0,0,3.82-.69l.08.05-2.32,9.23c-.08.33,0,.86.53.86,1.09,0,2.7-2.39,3.56-3.71a26.73,26.73,0,0,0,2.8-6.21h1.88l-2,7.61a12,12,0,0,0-.48,2c0,.13,0,.41.31.41.48,0,1.2-.89,2.09-2Z" transform="translate(1 0.5)"/><path class="cls-2" d="M197.41,20.89c0,2.14-2.42,7.5-5.9,7.5-1.2,0-1.2-.66-1.2-.84,0-2.67,2.44-8.83,5.24-8.83C197.15,18.73,197.41,20.1,197.41,20.89Zm-7.07-8.55c1.48,0,1.65.15,1.65.74a11,11,0,0,1-.41,1.7l-3.46,12.75v.1c0,.56,2,1.35,3.31,1.35,3.89,0,8.14-4.4,8.14-8.42a2.9,2.9,0,0,0-3-3.08c-2.29,0-3.89,2.37-4.73,3.69l-.05,0c.87-2.87,2-7.61,2.59-9.69l-.13-.13c-1.32.25-2.62.43-3.89.58Z" transform="translate(1 0.5)"/><path class="cls-2" d="M89.48,48.12c1.25-.23,1.63-.31,2.06-1.88L94.67,35a6.06,6.06,0,0,0,.28-1.58c0-.89-.69-1-1.78-1.09v-.41h6.28v.41c-1.25.23-1.65.28-2.09,1.88L94.24,45.47A5.45,5.45,0,0,0,94,47.1c0,.81.64.89,1.73,1v.41H89.48Z" transform="translate(1 0.5)"/><path class="cls-2" d="M107.92,45.88c-1.27,1.7-2.16,2.87-3.54,2.87-1.17,0-1.22-.76-1.22-1.5S105,40.44,105,39.42c0-.46-.15-.81-.64-.81-1.22,0-2.82,2.19-3.74,3.61-1.17,1.76-1.5,2.85-2.54,6.31H96.22c.79-2.87,2.49-8.83,2.49-9.36,0-.38-.25-.66-1.63-.66V38.1c1.37-.25,2.75-.51,4.12-.79l.08.05-1.63,5.32.05.05c1.2-1.88,3.54-5.42,5.65-5.42A1.54,1.54,0,0,1,107.11,39c0,1.09-2,7.38-2,8.14a.42.42,0,0,0,.41.43c.51,0,1.14-.81,2.09-2Z" transform="translate(1 0.5)"/><path class="cls-2" d="M114.71,38.45h-2.14l-2.24,8.47a.55.55,0,0,0,0,.2.39.39,0,0,0,.41.43c.51,0,1.4-1.2,2-2l.33.18c-1.3,2-2.29,3.08-3.61,3.08a1.09,1.09,0,0,1-1.22-1,20.81,20.81,0,0,1,.59-2.34l1.83-7h-1.88a.56.56,0,0,1,.05-.41c.15-.23.86-.41,1.3-.64a10.83,10.83,0,0,0,2.77-2.47c.1-.13.2-.36.43-.31s.23.18.18.38l-.71,2.62h2Z" transform="translate(1 0.5)"/><path class="cls-2" d="M117,42.12c.94-2.26,2.67-4.22,4-4.22.64,0,.89.48.89,1,0,.2-.13,3.26-5.37,4.32Zm5.24,3.64c-1.27,1-2.34,1.91-3.71,1.91a2.22,2.22,0,0,1-2.39-2.31,6.79,6.79,0,0,1,.25-1.55l.71-.1c4.12-.59,6.51-2.65,6.51-4.66,0-1.12-.79-1.73-2.09-1.73-3.59,0-7.61,4.27-7.61,7.91a3.3,3.3,0,0,0,3.48,3.59c2.54,0,4.86-2.34,5.14-2.75Z" transform="translate(1 0.5)"/><path class="cls-2" d="M124.28,48.53l2.06-7.43a12.15,12.15,0,0,0,.41-2c0-.36-.13-.76-.92-.76a4.75,4.75,0,0,0-.84.13V38c1.3-.18,2.8-.51,3.94-.69l.08.05-1.25,5.06.05.05L128,42c.84-1.68,2.77-4.66,4.38-4.66a1.18,1.18,0,0,1,1.22,1.25c0,1.32-.92,1.32-1.2,1.32-1.09,0-.71-.92-1.32-.92-.79,0-2.32,2.82-2.52,3.21a31.88,31.88,0,0,0-2.37,6.36Z" transform="translate(1 0.5)"/><path class="cls-2" d="M143.82,45.88c-1.27,1.7-2.16,2.87-3.54,2.87-1.17,0-1.22-.76-1.22-1.5s1.88-6.82,1.88-7.84c0-.46-.15-.81-.64-.81-1.22,0-2.82,2.19-3.74,3.61-1.17,1.76-1.5,2.85-2.54,6.31h-1.91c.79-2.87,2.49-8.83,2.49-9.36,0-.38-.25-.66-1.63-.66V38.1c1.37-.25,2.75-.51,4.12-.79l.08.05-1.63,5.32.05.05c1.2-1.88,3.54-5.42,5.65-5.42A1.54,1.54,0,0,1,143,39c0,1.09-2,7.38-2,8.14a.42.42,0,0,0,.41.43c.51,0,1.15-.81,2.09-2Z" transform="translate(1 0.5)"/><path class="cls-2" d="M145.78,45.75c0-2.29,2.29-7.89,5.27-7.89.74,0,1.45.48,1.45,1.7,0,2.49-2.49,8-5.19,8C146.62,47.56,145.78,47.1,145.78,45.75Zm9.23,0c-1.15,1.12-1.65,1.76-2,1.76a.34.34,0,0,1-.36-.33c0-.79,2.34-9.46,2.42-9.77l-.18-.08-1.55.18-.08.08L153,38.68h-.05a1.89,1.89,0,0,0-2-1.37c-3.38,0-7.28,4.76-7.28,8.5,0,.74.08,3,2.62,3,1.53,0,2.87-.76,5-3.87l.05.05a11,11,0,0,0-.53,2.7c0,.43,0,1.09,1.07,1.09s2-.92,3.49-2.8Z" transform="translate(1 0.5)"/><path class="cls-2" d="M162.57,38.45h-2.14l-2.24,8.47a.55.55,0,0,0,0,.2.39.39,0,0,0,.41.43c.51,0,1.4-1.2,2-2l.33.18c-1.3,2-2.29,3.08-3.61,3.08a1.09,1.09,0,0,1-1.22-1,20.94,20.94,0,0,1,.59-2.34l1.83-7h-1.88a.56.56,0,0,1,.05-.41c.15-.23.86-.41,1.3-.64a10.82,10.82,0,0,0,2.77-2.47c.1-.13.2-.36.43-.31s.23.18.18.38l-.71,2.62h2Z" transform="translate(1 0.5)"/><path class="cls-2" d="M167.45,45.91c-1,1.5-2.11,2.9-3.54,2.9-1.2,0-1.2-1.12-1.2-1.58,0-1.2,2-7.5,2-8.22,0-.53-.2-.66-1.6-.66v-.41c1-.05,3.08-.46,4.07-.64l.08.05L165,45.55a11.43,11.43,0,0,0-.41,1.68.41.41,0,0,0,.41.38c.31,0,1-.51,2.09-2Zm-.51-11.32a1.2,1.2,0,0,1-1.22-1.32,1.24,1.24,0,0,1,1.2-1.37,1.38,1.38,0,0,1,1.27,1.4A1.3,1.3,0,0,1,166.94,34.58Z" transform="translate(1 0.5)"/><path class="cls-2" d="M175.77,37.84c1.22,0,1.78,1.12,1.78,2.44,0,2.72-2,8-4.91,8-1.27,0-2-.92-2-2.37C170.61,42.9,172.92,37.84,175.77,37.84Zm.18-.53c-3.71,0-7.48,4.1-7.48,7.84,0,2.11,1.14,3.66,3.84,3.66,3.89,0,7.38-4.6,7.38-7.73A3.45,3.45,0,0,0,175.95,37.31Z" transform="translate(1 0.5)"/><path class="cls-2" d="M190.78,45.88c-1.27,1.7-2.16,2.87-3.54,2.87-1.17,0-1.22-.76-1.22-1.5s1.88-6.82,1.88-7.84c0-.46-.15-.81-.64-.81-1.22,0-2.82,2.19-3.74,3.61C182.36,44,182,45.07,181,48.53h-1.91c.79-2.87,2.49-8.83,2.49-9.36,0-.38-.25-.66-1.63-.66V38.1c1.37-.25,2.75-.51,4.12-.79l.08.05-1.63,5.32.05.05c1.2-1.88,3.54-5.42,5.65-5.42A1.54,1.54,0,0,1,190,39c0,1.09-2,7.38-2,8.14a.42.42,0,0,0,.41.43c.51,0,1.15-.81,2.09-2Z" transform="translate(1 0.5)"/><path class="cls-2" d="M193.25,45.75c0-2.29,2.29-7.89,5.27-7.89.74,0,1.45.48,1.45,1.7,0,2.49-2.49,8-5.19,8C194.09,47.56,193.25,47.1,193.25,45.75Zm9.23,0c-1.14,1.12-1.65,1.76-2,1.76a.34.34,0,0,1-.36-.33c0-.79,2.34-9.46,2.42-9.77l-.18-.08-1.55.18-.08.08-.25,1.12h-.05a1.89,1.89,0,0,0-2-1.37c-3.38,0-7.28,4.76-7.28,8.5,0,.74.08,3,2.62,3,1.53,0,2.87-.76,5-3.87l.05.05a11,11,0,0,0-.53,2.7c0,.43,0,1.09,1.07,1.09s2-.92,3.49-2.8Z" transform="translate(1 0.5)"/><path class="cls-2" d="M208.26,45.63c-1.3,2-2.29,3.18-3.87,3.18-1.12,0-1.22-.86-1.22-1.58,0-.53,3.69-13.81,3.69-14.35s-1.07-.66-1.73-.64v-.41a36.11,36.11,0,0,0,4-.69l.13.13L205.38,46a8.22,8.22,0,0,0-.25,1.2c0,.15,0,.51.38.51.64,0,1.17-.71,2.42-2.31Z" transform="translate(1 0.5)"/><path class="cls-2" d="M211.82,31.72h.26c.24,0,.44.12.44.48s-.12.58-.43.58h-.27Zm-.71,0c.31,0,.31,0,.31.31v1.52c0,.27,0,.27-.31.31v.09h1v-.09c-.32,0-.31,0-.31-.31V32.9h.3c.4.59.56,1,.76,1h.4v-.06a2.75,2.75,0,0,1-.48-.53l-.36-.5a.69.69,0,0,0,.5-.66c0-.39-.35-.57-.73-.57h-1.11Zm3.17,1.1A2.16,2.16,0,1,0,212.14,35,2.15,2.15,0,0,0,214.28,32.8Zm-.35,0a1.81,1.81,0,1,1-1.79-1.91A1.87,1.87,0,0,1,213.93,32.8Z" transform="translate(1 0.5)"/><path class="cls-3" d="M57.87,55.23A26.32,26.32,0,0,0,84.25,28.85,26.51,26.51,0,0,0,57.87,2H28.71A27,27,0,0,0,1.86,28.85,26.79,26.79,0,0,0,28.71,55.23Z" transform="translate(1 0.5)"/><path class="cls-4" d="M3.71,28.85a25,25,0,1,1,50,0,25,25,0,0,1-50,0Z" transform="translate(1 0.5)"/><path class="cls-3" d="M23.15,14A16.8,16.8,0,0,0,13,28.85,15.76,15.76,0,0,0,23.15,43.2V14Z" transform="translate(1 0.5)"/><path class="cls-3" d="M34.26,43.2A15.81,15.81,0,0,0,44.45,28.85,16.09,16.09,0,0,0,34.26,14V43.2Z" transform="translate(1 0.5)"/></svg>