<svg id="Layer_1" data-name="Layer 1" xmlns="http://www.w3.org/2000/svg" viewBox="0 0 196.74 246.53"><defs><style>.cls-1{fill:#f3c727;}.cls-1,.cls-2,.cls-3,.cls-4,.cls-5,.cls-6{fill-rule:evenodd;}.cls-2{fill:#00a1e4;}.cls-3{fill:#ed1c24;}.cls-4{fill:#00a651;}.cls-5{fill:#fff;}.cls-6{fill:#231f20;}</style></defs><title>jcb-logo</title><path class="cls-1" d="M200.08,58.31c-2.69-16.94-8.41-28.38-19.12-38.26C164.64,5,129.22,3.21,104,3.21S43.36,5,27,20.06C16.33,29.93,10.61,41.37,7.92,58.31c-2.57,16.2-2.4,37.35-2.17,66.64l0,2.26.05,7.12c.4,54.32.58,79.12,21.7,98.56C43.84,248,79,249.74,104,249.74s60.17-1.75,76.48-16.85c21.11-19.45,21.29-44.24,21.69-98.56l.06-7.12,0-2.26c.23-29.28.4-50.44-2.17-66.64Zm-2.6,66.6,0,2.26-.05,7.13c-.4,54.49-.57,77-20.16,95.09-15.09,14-49,15.58-73.25,15.58s-58.16-1.62-73.25-15.58c-19.59-18-19.76-40.6-20.16-95.09l-.05-7.13,0-2.26c-.47-58.37-.66-82.53,19.75-101.35C45.37,9.59,79.58,8,104,8s58.63,1.62,73.72,15.58c20.41,18.83,20.22,43,19.76,101.35Z" transform="translate(-5.63 -3.21)"/><path class="cls-1" d="M128.8,47.08c4.05-4.77,10-7.39,17.17-7.39h25.75V151.27c0,10.73-10.49,21.22-21.22,21.22H124v-8.58c-4.05,5-10.25,8.58-16.45,8.58H81.11v-8.58c-4.05,5-10.25,8.58-16.45,8.58H38.2V61.38c0-13.11,9.3-21.7,21.94-21.7H85.88v7.39c4.05-4.77,10-7.39,17.17-7.39H128.8v7.39Z" transform="translate(-5.63 -3.21)"/><path class="cls-2" d="M43,167.72h21.7c7.63,0,16.45-7.15,16.45-16.45V44.46h-21C50.35,44.46,43,50.65,43,61.38V167.72Z" transform="translate(-5.63 -3.21)"/><path class="cls-3" d="M85.88,167.72h21.7c7.63,0,16.45-7.15,16.45-16.45V44.46H103c-9.78,0-17.17,6.2-17.17,16.93V167.72Z" transform="translate(-5.63 -3.21)"/><path class="cls-4" d="M128.8,167.72h21.7c7.63,0,16.45-7.15,16.45-16.45V44.46H146c-9.78,0-17.17,6.2-17.17,16.93V167.72Z" transform="translate(-5.63 -3.21)"/><path class="cls-5" d="M48.92,109.07H43C44.63,115.74,52.5,121,61.32,121c8.11,0,19.07-4.53,19.07-13.11V92.38H66.81v15.5c0,4.53-3.58,8.11-8.58,8.11-4.53,0-8.58-2.86-9.3-6.91Z" transform="translate(-5.63 -3.21)"/><path class="cls-6" d="M39.09,193.68c.49,2.79,3.29,4.76,6.41,4.76a5.62,5.62,0,0,0,5.91-5.58V182.18h9.36v10.68c0,5.92-7.56,9-13.14,9-6.08,0-11.5-3.62-12.65-8.21Z" transform="translate(-5.63 -3.21)"/><path class="cls-6" d="M88.2,197.13v3.12H72.43a9,9,0,1,1,0-18.07H88.2v3.29a52.61,52.61,0,0,0-9.2-1.31,7.06,7.06,0,1,0,0,14.13,48.93,48.93,0,0,0,9.2-1.15Z" transform="translate(-5.63 -3.21)"/><path class="cls-6" d="M110.87,191.38a4.46,4.46,0,1,1,0,8.87H90.17V182.18h20.7a4.6,4.6,0,1,1,0,9.2Zm-12.81,6.9h6.57a3.12,3.12,0,1,0,0-6.24H98.06v6.24Zm0-14.13v6.24h6.41a3.12,3.12,0,0,0,0-6.24Z" transform="translate(-5.63 -3.21)"/><path class="cls-5" d="M166.94,112.17c0,3.58-3.1,6.44-7.15,6.44h-30V92.38h30a6.68,6.68,0,1,1,0,13.35c4.05,0,7.15,2.86,7.15,6.44Zm-25.75-7.87h9.3a4.53,4.53,0,0,0,0-9.06h-9.3v9.06Zm9.54,11.44a4.53,4.53,0,1,0,0-9.06h-9.54v9.06Z" transform="translate(-5.63 -3.21)"/><path class="cls-5" d="M123.08,114.07v4.53H100.19a13.11,13.11,0,1,1,0-26.23h22.89v4.77a76.21,76.21,0,0,0-13.35-1.91,10.25,10.25,0,0,0,0,20.5,71,71,0,0,0,13.35-1.67Z" transform="translate(-5.63 -3.21)"/><path class="cls-6" d="M127.83,197.86c-1.68,0-1.75-2.44-1.75-3.93v-5c0-1.41-.16-4.55,1.75-4.55,1.2,0,1.11,2.16,1.22,3.32h2.41a11.91,11.91,0,0,0-.05-1.38c-.16-3.07-1.38-4.6-3.57-4.66-3.9,0-4.18,3.42-4.27,8v2.57c0,4.81.25,8.33,4.27,8.33,2.73,0,3.54-2.52,3.64-5.81,0-.35,0-.7.06-1.06h-2.46c-.05,1.16.11,4.15-1.24,4.15Z" transform="translate(-5.63 -3.21)"/><path class="cls-6" d="M135.58,182.07l-3.12,18.07h2.61l.66-4.58h2.86l.64,4.58h2.63l-3-18.07Zm.53,10.85.73-5.13c.13-.85.17-1.66.24-2.52,0-.4.05-.8.09-1.21h0c0,.4.07.81.09,1.21.07.86.11,1.66.24,2.52l.67,5.13Z" transform="translate(-5.63 -3.21)"/><path class="cls-6" d="M151.37,194.11c0-1.74-.44-3-1.88-3.27v-.05c1.64-.33,2-2.39,2-4.38,0-3.32-1.6-4.33-3.72-4.33h-4.63v18.07h2.44v-7.78H146a5.79,5.79,0,0,1,2.08.23c.84.35.82,1.86.84,3a25.49,25.49,0,0,0,.26,4.58h2.7v-.33c-.6-.53-.53-5-.53-5.71Zm-3.85-4.41h-1.93v-5h1.82c.93,0,1.53.38,1.53,2.39,0,1.81-.62,2.54-1.42,2.59Z" transform="translate(-5.63 -3.21)"/><path class="cls-6" d="M159,182.07h-5.09v18.07h4.52a2.76,2.76,0,0,0,1.8-.48c2-1.61,2-5.74,2-9.31,0-3-.16-5-.73-6.24a2.94,2.94,0,0,0-2.53-2Zm-1.59,15.43h-1.06V184.72H158c1.46,0,1.79,1.69,1.79,6,0,5.23-.15,6.82-2.33,6.82Z" transform="translate(-5.63 -3.21)"/><path class="cls-6" d="M171.09,191.59a25.25,25.25,0,0,0-3-3,3,3,0,0,1-1.38-2.57c0-1.24.51-1.69,1.33-1.69,1.35,0,1.46,1.59,1.44,3.2h2.35c0-1.79.09-5.91-3.81-5.91-2.57,0-3.83,1.69-3.83,4.76a6.31,6.31,0,0,0,.62,2.77c1,1.81,2.59,2.79,3.87,4.18a3.11,3.11,0,0,1,1,2.39c0,1.36-.47,2.12-1.51,2.12-1.2,0-1.58-1.28-1.53-3v-1.06h-2.44v1.33c0,3.22,1,5.49,4,5.49,2.39,0,4-1.79,4-5.21a5.73,5.73,0,0,0-1.09-3.78Z" transform="translate(-5.63 -3.21)"/><path class="cls-6" d="M173.65,171.55a1,1,0,0,0-.4-.9,1.92,1.92,0,0,0-1-.17h-1.68V174h.69v-1.48H172l.77,1.48h.8l-.85-1.48c.62,0,1-.31,1-.94Zm-1.34.42h-1v-1h.84c.34,0,.83,0,.83.46s-.28.53-.66.52Z" transform="translate(-5.63 -3.21)"/><path class="cls-6" d="M171.94,169a3.23,3.23,0,1,0,3.23,3.22,3.23,3.23,0,0,0-3.23-3.22Zm0,5.85a2.62,2.62,0,1,1,2.62-2.63,2.62,2.62,0,0,1-2.62,2.63Z" transform="translate(-5.63 -3.21)"/></svg>