<svg id="Layer_1" data-name="Layer 1" xmlns="http://www.w3.org/2000/svg" viewBox="0 0 362.09 230.01"><defs><style>.cls-1{fill:#fff;}.cls-2{fill:#f7b600;}.cls-3{fill:#1a1f71;}</style></defs><title>visa-logo</title><rect class="cls-1" width="362.09" height="230.01"/><rect class="cls-2" x="6.03" y="192.63" width="350.02" height="31.38"/><rect class="cls-3" x="6.03" y="6.03" width="350.02" height="31.38"/><path class="cls-3" d="M146.05,71.85l-36.16,86.26H86.31L68.51,89.27c-1.08-4.23-2-5.79-5.3-7.58-5.37-2.92-14.23-5.64-22-7.34l.53-2.5h38A10.41,10.41,0,0,1,90,80.64l9.4,49.92,23.21-58.71Zm92.42,58.1c.1-22.76-31.47-24-31.26-34.2.07-3.09,3-6.38,9.46-7.22a42.13,42.13,0,0,1,22,3.86l3.91-18.3a60.16,60.16,0,0,0-20.87-3.81c-22.06,0-37.58,11.72-37.7,28.51-.14,12.42,11.09,19.34,19.53,23.48,8.7,4.23,11.62,6.94,11.58,10.72-.06,5.79-6.94,8.35-13.34,8.45-11.23.18-17.73-3-22.92-5.45l-4,18.91c5.22,2.39,14.84,4.47,24.81,4.58,23.45,0,38.79-11.58,38.86-29.51m58.26,28.16h20.63l-18-86.26h-19a10.16,10.16,0,0,0-9.51,6.32l-33.48,79.93h23.44l4.65-12.88H294Zm-24.91-30.56,11.75-32.39,6.76,32.39Zm-93.88-55.7-18.45,86.26H137.17l18.45-86.26Z" transform="translate(0.09 0.14)"/></svg>